<svg width="51" height="57" viewBox="0 0 51 57" fill="none" xmlns="http://www.w3.org/2000/svg">
<g id="Group">
<g id="change1_1">
<path id="Vector" fill-rule="evenodd" clip-rule="evenodd" d="M33.9224 48.556C34.2876 50.438 34.5963 52.3029 34.3876 54.2641C34.2711 55.3595 35.0302 55.6058 36.0347 54.6063C37.1509 53.4956 38.296 52.1295 39.9406 51.2914C41.0688 50.7162 42.3504 50.5135 43.5555 50.1247C42.4503 50.84 41.344 51.5547 40.2391 52.271C38.5772 53.3488 37.0186 54.7381 35.5944 56.2652C32.273 59.8251 33.3176 49.3346 33.9224 48.556Z" fill="black"/>
</g>
<g id="change1_2">
<path id="Vector_2" fill-rule="evenodd" clip-rule="evenodd" d="M45.293 48.3372C49.889 46.3674 49.6172 42.937 49.3242 38.1443C50.7376 42.2757 52.1654 47.4608 45.293 48.3372Z" fill="black"/>
</g>
<g id="Group_2">
<g id="change2_1">
<path id="Vector_3" fill-rule="evenodd" clip-rule="evenodd" d="M17.1172 26.3304C24.609 33.1089 31.9409 40.0821 38.9518 47.4492C43.5933 47.4698 46.076 45.6205 45.4023 41.0398C38.3039 32.6991 32.2185 24.2593 26.1976 15.8129C24.0096 20.1213 21.0941 23.7341 17.1172 26.3304Z" fill="#DDE5E8"/>
</g>
<g id="change1_4">
<path id="Vector_4" d="M17.9656 26.393C21.5398 29.634 25.0822 32.9262 28.5779 36.293C32.1823 39.7637 35.722 43.3016 39.175 46.9243C41.2528 46.9063 42.8359 46.488 43.8141 45.5836C44.7757 44.6949 45.1738 43.2856 44.9049 41.2635C41.3911 37.1298 38.119 32.9632 34.9771 28.7795C31.9494 24.7497 29.0927 20.7768 26.2653 16.8128C25.2443 18.7104 24.074 20.4669 22.7271 22.0539C21.3379 23.6906 19.7609 25.1475 17.9656 26.393ZM27.8517 37.0456C24.2174 33.5453 20.514 30.1099 16.7652 26.7179L16.2607 26.2618L16.8298 25.8901C18.7759 24.6199 20.4624 23.1008 21.9287 21.3736C23.4014 19.6388 24.6551 17.6926 25.7299 15.5766L26.1225 14.8029L26.6253 15.508C29.6558 19.7599 32.6964 24.0008 35.8148 28.1525C38.965 32.3461 42.2545 36.5317 45.8022 40.7L45.8991 40.8142L45.9209 40.9626C46.2849 43.4414 45.7739 45.2018 44.5264 46.3558C43.3057 47.4848 41.4036 47.9841 38.9498 47.9728L38.7266 47.9725L38.5727 47.81C35.0646 44.1244 31.4844 40.5452 27.8517 37.0456Z" fill="black"/>
</g>
<g id="change2_2">
<path id="Vector_5" fill-rule="evenodd" clip-rule="evenodd" d="M10.0697 10.241C14.6825 5.58538 20.2082 1.80167 24.1605 3.11381C25.2849 3.48624 26.9962 5.84684 27.6709 7.00965C30.0911 11.1828 28.3166 17.9291 23.0947 23.1462C17.9335 28.3014 11.2664 30.0346 7.40319 27.8687C6.19859 27.1937 3.20076 25.1836 2.88555 24.0059C1.83457 20.0803 5.63422 14.7175 10.0697 10.241Z" fill="#DDE5E8"/>
</g>
<g id="change3_1">
<path id="Vector_6" fill-rule="evenodd" clip-rule="evenodd" d="M9.59425 25.5703C15.6244 25.8512 20.5835 23.0103 25.5996 20.2902C22.462 23.7895 19.2212 27.2239 12.8041 28.6804C7.31838 29.0246 5.3216 27.1689 3.82275 24.9994C5.68541 25.4611 7.56883 25.8315 9.59425 25.5703Z" fill="#B1BCBE"/>
</g>
<g id="change3_2">
<path id="Vector_7" fill-rule="evenodd" clip-rule="evenodd" d="M25.2648 4.49878C25.5502 7.66471 25.4292 10.8709 23.855 14.2219C26.3231 12.5115 27.8961 12.4139 28.5738 13.9295C29.2876 9.15507 27.7806 6.37391 25.2648 4.49878Z" fill="#B1BCBE"/>
</g>
<g id="change1_5">
<path id="Vector_8" d="M9.69737 9.87244L9.70003 9.86978L9.69969 9.86763C10.3486 9.21291 11.02 8.57101 11.707 7.95473C12.3865 7.34429 13.082 6.75896 13.7863 6.21157C17.461 3.35188 21.2858 1.60756 24.3257 2.61577L24.3319 2.61744L24.3349 2.61795L24.3347 2.61928C24.5404 2.6885 24.7513 2.80149 24.963 2.94795C25.16 3.08378 25.3634 3.25287 25.5688 3.44425C26.565 4.37505 27.6241 5.88205 28.1252 6.74546L28.1241 6.74615L28.1246 6.74615L28.1266 6.7503C28.4869 7.37207 28.7608 8.05041 28.9497 8.77221C29.1371 9.48835 29.2396 10.2419 29.2586 11.0206C29.3541 14.9654 27.3277 19.6595 23.4653 23.5176L23.4637 23.5179L23.4582 23.5226L23.4595 23.5239C22.7194 24.2622 21.9493 24.9325 21.1618 25.5317C20.3753 26.1308 19.5673 26.6617 18.7513 27.122C14.5176 29.5119 10.0918 29.9729 7.15204 28.3279L7.15122 28.3286L7.14356 28.3243L7.13923 28.3206C6.95616 28.2184 6.74331 28.0926 6.51614 27.9505C6.29346 27.8117 6.03933 27.6476 5.76424 27.4615L5.76339 27.4632C4.35275 26.5106 2.6449 25.1366 2.37829 24.1407L2.37812 24.1387L2.37662 24.133C2.21503 23.5262 2.15794 22.8945 2.19305 22.2451C2.22717 21.6037 2.35048 20.9406 2.54919 20.2649C3.54043 16.8975 6.45356 13.1444 9.69621 9.8708L9.69737 9.87244ZM10.4446 10.6057L10.4425 10.6081L10.4428 10.6102C7.30385 13.7785 4.49205 17.3834 3.55675 20.5619C3.38135 21.1586 3.27266 21.7405 3.2427 22.2977C3.21308 22.8462 3.25903 23.3711 3.38984 23.8638L3.38998 23.8651L3.39199 23.8714C3.57771 24.5657 5.08955 25.7407 6.35004 26.5915L6.35021 26.5938C6.59436 26.7589 6.84068 26.9183 7.07167 27.0618C7.29584 27.2013 7.49125 27.3174 7.64602 27.4046L7.64701 27.404L7.65451 27.4083L7.65932 27.4119C10.2789 28.8801 14.3155 28.4201 18.2354 26.2073C19.0053 25.7723 19.773 25.268 20.5256 24.6945C21.2773 24.1227 22.0116 23.4836 22.7169 22.78L22.7191 22.78L22.7241 22.775L22.7234 22.7736C26.3784 19.1222 28.2975 14.7191 28.2081 11.0463C28.1912 10.3423 28.1011 9.66875 27.9363 9.03782L27.9362 9.03568C27.7731 8.41272 27.5343 7.82276 27.2194 7.27772L27.2175 7.27503L27.2157 7.27322C26.7461 6.46403 25.7627 5.05956 24.852 4.20913C24.6867 4.05538 24.5234 3.91921 24.368 3.81154C24.2304 3.71668 24.1045 3.64695 23.9976 3.61167L23.9916 3.61017L23.9887 3.60901L23.9889 3.60816C21.34 2.7336 17.8474 4.37955 14.4294 7.03889C13.7535 7.56478 13.077 8.13497 12.4076 8.7356C11.7454 9.32992 11.0887 9.95867 10.446 10.6071L10.4446 10.6057Z" fill="black"/>
</g>
<g id="change3_3">
<path id="Vector_9" fill-rule="evenodd" clip-rule="evenodd" d="M6.33803 6.44891C12.1728 0.56041 19.8984 -1.24615 23.5939 2.41608C27.2896 6.07712 25.5554 13.8194 19.7207 19.7079C13.886 25.5967 6.16028 27.4031 2.46499 23.7417C-1.23085 20.0797 0.503651 12.3382 6.33803 6.44891Z" fill="#B1BCBE"/>
</g>
<g id="change2_3">
<path id="Vector_10" fill-rule="evenodd" clip-rule="evenodd" d="M6.51629 8.44464C10.7683 4.15318 16.3985 2.83689 19.0913 5.50489C21.7844 8.17354 20.5202 13.8149 16.2687 18.1064C12.0163 22.3978 6.3868 23.7139 3.69368 21.0454C1.00077 18.3776 2.2646 12.7361 6.51629 8.44464Z" fill="#DDE5E8"/>
</g>
<g id="change4_1">
<path id="Vector_11" fill-rule="evenodd" clip-rule="evenodd" d="M11.8254 12.6013C9.94018 15.162 8.05424 17.7226 6.16895 20.2836C7.08247 20.6324 8.31004 20.5988 9.85146 20.1824C10.5097 17.6553 11.1674 15.1282 11.8254 12.6013Z" fill="white"/>
</g>
<g id="change4_2">
<path id="Vector_12" fill-rule="evenodd" clip-rule="evenodd" d="M11.0939 12.3215C8.75302 14.7217 6.82529 16.7443 4.48416 19.1445C3.88455 17.9735 3.22049 16.9995 3.73526 15.2491C6.18823 14.2728 8.64098 13.2971 11.0939 12.3215Z" fill="white"/>
</g>
<g id="change5_1">
<path id="Vector_13" d="M7.43983 7.54188L7.44331 7.53858L7.44447 7.53708C8.009 6.96689 8.60148 6.45099 9.21026 5.99246C9.81621 5.53481 10.4388 5.13439 11.0669 4.79355C14.3437 3.01443 17.7294 2.89844 19.652 4.80268L19.6532 4.80384L19.6537 4.80384C20.0343 5.18132 20.3365 5.61784 20.5632 6.10081C20.7865 6.57812 20.9358 7.10138 21.0124 7.65958C21.3965 10.4399 19.9527 14.0854 17.0263 17.0399L17.0256 17.0392L17.0225 17.0432L17.0211 17.0445C16.4561 17.614 15.8636 18.1299 15.2553 18.5889C14.6496 19.0459 14.0266 19.4464 13.3987 19.7872C10.1218 21.5663 6.73599 21.6831 4.81362 19.7789L4.81263 19.7769L4.81263 19.7776C4.4315 19.3994 4.12928 18.963 3.90258 18.4801C3.67927 18.0034 3.52998 17.4802 3.45291 16.922C3.0693 14.1417 4.51272 10.4956 7.43983 7.54188ZM7.95075 8.03801L7.94758 8.04183L7.94608 8.0435C5.17443 10.8398 3.80207 14.2522 4.15757 16.8268C4.2243 17.3101 4.3541 17.7641 4.54783 18.1779C4.73856 18.5853 4.99334 18.9528 5.31373 19.2713L5.31455 19.2726L5.31506 19.2726C7.00096 20.9422 10.0582 20.7921 13.0595 19.1631C13.6528 18.8412 14.2456 18.4591 14.8263 18.0208C15.4046 17.5847 15.9715 17.0911 16.5149 16.5426L16.5185 16.5396L16.5194 16.5379C19.2907 13.7411 20.6632 10.3292 20.3082 7.75491C20.2415 7.27146 20.1122 6.8176 19.9181 6.40303C19.7269 5.99665 19.4719 5.62817 19.1519 5.31013L19.1511 5.30795L19.1502 5.3088C17.4643 3.63922 14.4074 3.78848 11.4061 5.41879C10.8124 5.74034 10.2203 6.12164 9.63897 6.56016C9.0608 6.99685 8.49429 7.49049 7.95092 8.03869L7.95075 8.03801Z" fill="#94A6B0"/>
</g>
<g id="change5_2">
<path id="Vector_14" fill-rule="evenodd" clip-rule="evenodd" d="M11.7381 11.2173C12.137 9.71564 13.6021 4.5849 14.4057 1.65796C15.2242 1.09026 16.1682 0.802177 17.2365 0.793213C17.2365 0.793213 11.3395 12.719 11.7381 11.2173Z" fill="#94A6B0"/>
</g>
<g id="change5_3">
<path id="Vector_15" fill-rule="evenodd" clip-rule="evenodd" d="M12.4531 11.0733C14.3254 7.89443 17.2154 4.02936 19.0877 0.849792C22.0063 1.06998 23.3008 2.13493 24.3641 3.32038C20.7331 5.6763 16.084 8.71759 12.4531 11.0733Z" fill="#94A6B0"/>
</g>
<g id="change5_4">
<path id="Vector_16" fill-rule="evenodd" clip-rule="evenodd" d="M12.7173 11.6973C16.5396 10.7919 21.5282 9.85392 25.3509 8.94824C25.2941 9.74411 25.2786 10.5355 24.5582 11.397C21 11.4861 16.2753 11.6081 12.7173 11.6973Z" fill="#94A6B0"/>
</g>
<g id="change1_6">
<path id="Vector_17" fill-rule="evenodd" clip-rule="evenodd" d="M19.9925 26.3188C27.2275 33.0897 34.0139 39.9051 40.6381 46.7376C40.0588 47.1054 39.1573 46.9626 38.2105 46.7469C31.9484 40.2264 25.5428 33.7201 17.438 27.3822C18.2896 27.0278 19.141 26.673 19.9925 26.3188Z" fill="black"/>
</g>
<g id="change1_7">
<path id="Vector_18" fill-rule="evenodd" clip-rule="evenodd" d="M21.2764 25.2656C21.2764 25.2656 29.4717 32.0954 29.0714 31.5565C28.6707 31.0176 23.4657 22.8477 23.4657 22.8477L21.2764 25.2656Z" fill="black"/>
</g>
<g id="change1_8">
<path id="Vector_19" fill-rule="evenodd" clip-rule="evenodd" d="M25.729 19.8324L31.5651 26.2019L27.0358 17.8496L25.729 19.8324Z" fill="black"/>
</g>
<g id="change1_9">
<path id="Vector_20" fill-rule="evenodd" clip-rule="evenodd" d="M29.6543 32.7726L41.0392 47.2777L43.9262 46.0644L29.6543 32.7726Z" fill="black"/>
</g>
<g id="change1_10">
<path id="Vector_21" fill-rule="evenodd" clip-rule="evenodd" d="M31.1235 28.9208L44.671 45.4119L45.4517 42.7867L32.0752 26.8577L40.0268 38.2296L31.1235 28.9208Z" fill="black"/>
</g>
<g id="change4_3">
<path id="Vector_22" fill-rule="evenodd" clip-rule="evenodd" d="M24.3472 23.571C24.7253 23.1087 25.1038 22.6467 25.4819 22.1847C29.4485 27.5809 33.4146 32.9774 37.381 38.3753C32.7479 34.4373 28.5185 29.1034 24.3472 23.571Z" fill="white"/>
</g>
<g id="change1_11">
<path id="Vector_23" fill-rule="evenodd" clip-rule="evenodd" d="M6.17334 27.1929C11.5524 28.1495 17.357 25.3492 22.8075 20.3238C18.311 25.3968 13.4192 28.1455 7.74755 28.0307C7.37044 27.8476 6.55045 27.3763 6.17334 27.1929Z" fill="black"/>
</g>
<g id="change1_12">
<path id="Vector_24" fill-rule="evenodd" clip-rule="evenodd" d="M9.6333 28.6725C14.9326 27.9189 19.4519 25.3863 23.29 21.0215C20.7239 25.0877 16.7793 27.6343 11.7006 28.6335C11.0115 28.6465 10.3223 28.6595 9.6333 28.6725Z" fill="black"/>
</g>
<g id="change1_13">
<path id="Vector_25" fill-rule="evenodd" clip-rule="evenodd" d="M26.8306 5.75812C27.4948 9.05971 27.706 12.5447 24.7456 17.3155C26.7905 15.5057 28.2652 12.8334 27.7071 7.07939C27.4149 6.63885 27.1228 6.19882 26.8306 5.75812Z" fill="black"/>
</g>
<g id="change1_14">
<path id="Vector_26" d="M5.96566 6.07977L5.97046 6.07493L5.97265 6.07244C6.80494 5.23281 7.67801 4.4726 8.57537 3.79607C9.46807 3.12223 10.3859 2.53172 11.3113 2.02929C16.1411 -0.592257 21.1309 -0.764006 23.9645 2.04295L23.9663 2.04493C24.5275 2.60081 24.9735 3.24486 25.307 3.9565C25.6369 4.65932 25.8566 5.43105 25.9697 6.25353C26.5353 10.3513 24.4077 15.7238 20.0939 20.0782L20.0937 20.0776L20.0887 20.0832L20.0867 20.0852C19.2543 20.9246 18.381 21.6855 17.4845 22.3616C16.5913 23.0353 15.6735 23.6254 14.7484 24.1277C9.91842 26.7499 4.92848 26.9216 2.09507 24.1151L2.0934 24.1124L2.09323 24.113C1.53204 23.5562 1.08618 22.9124 0.752499 22.2005C0.422838 21.4978 0.203302 20.7269 0.0896317 19.9045C-0.475721 15.8064 1.65157 10.4335 5.96566 6.07977ZM6.71854 6.81104L6.71357 6.81687L6.71155 6.81905C2.62682 10.9411 0.604574 15.9695 1.12831 19.7643C1.22668 20.477 1.41738 21.146 1.70314 21.7554C1.98457 22.3559 2.36052 22.8982 2.83251 23.3671L2.83384 23.3688C5.31891 25.8306 9.82456 25.6086 14.2483 23.2077C15.1226 22.7327 15.9962 22.1702 16.8522 21.5245C17.7047 20.8814 18.5396 20.1538 19.3407 19.3463L19.3411 19.3463L19.3461 19.3413L19.3476 19.339C23.4317 15.2162 25.4548 10.1877 24.9311 6.39382C24.833 5.68119 24.6425 5.01198 24.3564 4.40154C24.075 3.80224 23.6992 3.25918 23.2272 2.79103L23.2259 2.7882L23.2252 2.78902C20.7403 0.32757 16.2345 0.548776 11.8114 2.95031C10.9368 3.42527 10.0634 3.98714 9.20729 4.63338C8.35468 5.27644 7.51955 6.00421 6.71854 6.81173L6.71854 6.81104Z" fill="black"/>
</g>
</g>
<g id="change1_3">
<path id="Vector_27" fill-rule="evenodd" clip-rule="evenodd" d="M36.7305 44.341C36.6095 44.9834 36.0486 46.0948 36.0656 46.7482C36.1175 48.7519 36.0171 50.1549 35.2774 52.0562C34.9911 52.7918 35.3952 53.525 36.7952 52.1074C38.8381 50.0381 37.2842 49.9332 40.6706 49.5019C43.765 49.1081 46.9878 46.1247 47.2747 42.8911C47.3812 41.6888 46.8954 40.4592 47.1171 39.2723C47.2627 38.4938 48.1662 37.8683 48.9062 36.9739C49.1307 36.7034 48.92 36.1695 47.7678 36.684C46.6746 37.171 46.0262 38.1629 43.4534 38.9285C48.8356 44.1026 40.0576 50.2667 36.7305 44.341Z" fill="black"/>
</g>
</g>
</svg>
